<svg version="1.1" id="IconsRepoEditor" xmlns="http://www.w3.org/2000/svg" xmlns:xlink="http://www.w3.org/1999/xlink" x="0px" y="0px" viewBox="0 0 383.2 383.2" style="enable-background:new 0 0 383.2 383.2;" xml:space="preserve" width="100px" height="100px" fill="#000000" stroke="#000000" stroke-width="0">
<g id="IconsRepo_bgCarrier">

<path id="svg_5" d="m324.85001,34.05312l-269.10001,-2.05312l29,281l9,25l23,36l74,-4l79,0l26,-41l29.10001,-294.94688zc-25.76668,273.28021 -22.43334,251.61355 -19.10001,229.94688" stroke-opacity="null" stroke-width="1.5" stroke="#000" fill="white" fill-opacity="0.4"/>
  <path id="svg_1" d="m341.2,2.5c-1.5,-1.6 -3.5,-2.5 -5.6,-2.5l-288,0c-2.2,0 -4.2,0.9 -5.6,2.5s-2.1,3.7 -1.9,5.8l28,290.1c1.7,21.3 6.9,38.2 15.4,50.2c0,0.1 0.1,0.1 0.1,0.2c11.2,14.8 28.5,34.4 49.3,34.4l116,0l0,0c17,0 38.2,-17.8 49.6,-34.8c8.5,-12 13.6,-28.9 15.3,-50.1l29.3,-290c0.2,-2.1 -0.5,-4.2 -1.9,-5.8zm-42.3,294.6c0,0.1 0,0.1 0,0.2c-1.5,18.3 -5.8,33.1 -12.7,42.7l-0.1,0.1c-10.3,15.2 -27.3,28.1 -37.1,28.1l-116,0c-10.6,0 -22.8,-9.2 -37.3,-28.3l0,0c-6.8,-9.7 -11.2,-24.4 -12.5,-42.7l0,-0.1l-27.2,-281.9l271.4,0l-28.5,281.9z"/>
 </g>
</svg>